<mxfile host="app.diagrams.net" agent="Mozilla/5.0 (Windows NT 10.0; Win64; x64) AppleWebKit/537.36 (KHTML, like Gecko) Chrome/134.0.0.0 Safari/537.36" version="26.0.16">
  <diagram name="Página-1" id="FYHkIULbLmziJYAY0jOf">
    <mxGraphModel dx="1793" dy="973" grid="1" gridSize="10" guides="1" tooltips="1" connect="1" arrows="1" fold="1" page="1" pageScale="1" pageWidth="827" pageHeight="1169" math="0" shadow="0">
      <root>
        <mxCell id="0" />
        <mxCell id="1" parent="0" />
        <mxCell id="2v6A8b7P8TfMOV1MHthp-94" style="edgeStyle=orthogonalEdgeStyle;rounded=0;orthogonalLoop=1;jettySize=auto;html=1;exitX=0;exitY=0.3333333333333333;exitDx=0;exitDy=0;exitPerimeter=0;entryX=1;entryY=0.5;entryDx=0;entryDy=0;fillColor=#e1d5e7;strokeColor=#9673a6;" edge="1" parent="1" source="2v6A8b7P8TfMOV1MHthp-2" target="2v6A8b7P8TfMOV1MHthp-52">
          <mxGeometry relative="1" as="geometry">
            <Array as="points">
              <mxPoint x="670" y="387" />
              <mxPoint x="670" y="750" />
            </Array>
          </mxGeometry>
        </mxCell>
        <mxCell id="2v6A8b7P8TfMOV1MHthp-95" style="edgeStyle=orthogonalEdgeStyle;rounded=0;orthogonalLoop=1;jettySize=auto;html=1;exitX=0;exitY=0.3333333333333333;exitDx=0;exitDy=0;exitPerimeter=0;entryX=1;entryY=0.5;entryDx=0;entryDy=0;fillColor=#e1d5e7;strokeColor=#9673a6;" edge="1" parent="1" source="2v6A8b7P8TfMOV1MHthp-2" target="2v6A8b7P8TfMOV1MHthp-54">
          <mxGeometry relative="1" as="geometry">
            <Array as="points">
              <mxPoint x="670" y="387" />
              <mxPoint x="670" y="670" />
            </Array>
          </mxGeometry>
        </mxCell>
        <mxCell id="2v6A8b7P8TfMOV1MHthp-99" style="edgeStyle=orthogonalEdgeStyle;rounded=0;orthogonalLoop=1;jettySize=auto;html=1;exitX=0;exitY=0.3333333333333333;exitDx=0;exitDy=0;exitPerimeter=0;entryX=1;entryY=0.5;entryDx=0;entryDy=0;fillColor=#e1d5e7;strokeColor=#9673a6;" edge="1" parent="1" source="2v6A8b7P8TfMOV1MHthp-2" target="2v6A8b7P8TfMOV1MHthp-45">
          <mxGeometry relative="1" as="geometry">
            <Array as="points">
              <mxPoint x="670" y="387" />
              <mxPoint x="670" y="290" />
            </Array>
          </mxGeometry>
        </mxCell>
        <mxCell id="2v6A8b7P8TfMOV1MHthp-2" value="SISTEMA" style="shape=umlActor;verticalLabelPosition=bottom;verticalAlign=top;html=1;outlineConnect=0;" vertex="1" parent="1">
          <mxGeometry x="680" y="320" width="80" height="200" as="geometry" />
        </mxCell>
        <mxCell id="2v6A8b7P8TfMOV1MHthp-20" value="CADASTRO PROMOCIONAL" style="text;html=1;align=center;verticalAlign=middle;whiteSpace=wrap;rounded=0;fillColor=#f5f5f5;fontColor=#333333;strokeColor=#666666;opacity=0;" vertex="1" parent="1">
          <mxGeometry x="318.75" y="110" width="118.75" height="60" as="geometry" />
        </mxCell>
        <mxCell id="2v6A8b7P8TfMOV1MHthp-76" style="edgeStyle=orthogonalEdgeStyle;rounded=0;orthogonalLoop=1;jettySize=auto;html=1;fillColor=#d5e8d4;strokeColor=#82b366;" edge="1" parent="1" source="2v6A8b7P8TfMOV1MHthp-45">
          <mxGeometry relative="1" as="geometry">
            <mxPoint x="380" y="340.00000000000006" as="targetPoint" />
          </mxGeometry>
        </mxCell>
        <mxCell id="2v6A8b7P8TfMOV1MHthp-45" value="EXIBIR CAMPO PARA INSERÇÃO DO EMAIL" style="rounded=0;whiteSpace=wrap;html=1;fillColor=#ffe6cc;strokeColor=#d79b00;" vertex="1" parent="1">
          <mxGeometry x="320" y="260" width="120" height="60" as="geometry" />
        </mxCell>
        <mxCell id="2v6A8b7P8TfMOV1MHthp-75" style="edgeStyle=orthogonalEdgeStyle;rounded=0;orthogonalLoop=1;jettySize=auto;html=1;fillColor=#d5e8d4;strokeColor=#82b366;" edge="1" parent="1" source="2v6A8b7P8TfMOV1MHthp-46">
          <mxGeometry relative="1" as="geometry">
            <mxPoint x="378.75" y="260.00000000000006" as="targetPoint" />
          </mxGeometry>
        </mxCell>
        <mxCell id="2v6A8b7P8TfMOV1MHthp-46" value="ACESSAR INTERFACE" style="strokeWidth=2;html=1;shape=mxgraph.flowchart.start_1;whiteSpace=wrap;movable=1;resizable=1;rotatable=1;deletable=1;editable=1;locked=0;connectable=1;fillColor=#fff2cc;strokeColor=#d6b656;" vertex="1" parent="1">
          <mxGeometry x="320" y="180" width="117.5" height="60" as="geometry" />
        </mxCell>
        <mxCell id="2v6A8b7P8TfMOV1MHthp-48" value="FIM" style="strokeWidth=2;html=1;shape=mxgraph.flowchart.start_1;whiteSpace=wrap;fillColor=#fff2cc;strokeColor=#d6b656;" vertex="1" parent="1">
          <mxGeometry x="320" y="800" width="120" height="60" as="geometry" />
        </mxCell>
        <mxCell id="2v6A8b7P8TfMOV1MHthp-77" style="edgeStyle=orthogonalEdgeStyle;rounded=0;orthogonalLoop=1;jettySize=auto;html=1;fillColor=#d5e8d4;strokeColor=#82b366;" edge="1" parent="1" source="2v6A8b7P8TfMOV1MHthp-49">
          <mxGeometry relative="1" as="geometry">
            <mxPoint x="380.625" y="420" as="targetPoint" />
          </mxGeometry>
        </mxCell>
        <mxCell id="2v6A8b7P8TfMOV1MHthp-49" value="INSERIR UM EMAIL VALIDO NO CAMPO SOLICITADO" style="rounded=0;whiteSpace=wrap;html=1;fillColor=#ffe6cc;strokeColor=#d79b00;" vertex="1" parent="1">
          <mxGeometry x="321.25" y="340" width="118.75" height="60" as="geometry" />
        </mxCell>
        <mxCell id="2v6A8b7P8TfMOV1MHthp-84" style="edgeStyle=orthogonalEdgeStyle;rounded=0;orthogonalLoop=1;jettySize=auto;html=1;fillColor=#d5e8d4;strokeColor=#82b366;" edge="1" parent="1" source="2v6A8b7P8TfMOV1MHthp-52">
          <mxGeometry relative="1" as="geometry">
            <mxPoint x="380" y="799.9999999999999" as="targetPoint" />
          </mxGeometry>
        </mxCell>
        <mxCell id="2v6A8b7P8TfMOV1MHthp-52" value="EXIBIR MENSAGEM QUE O EMAIL FOI CADASTRADO COM SUCESSO" style="rounded=0;whiteSpace=wrap;html=1;fillColor=#ffe6cc;strokeColor=#d79b00;" vertex="1" parent="1">
          <mxGeometry x="320" y="720" width="120" height="60" as="geometry" />
        </mxCell>
        <mxCell id="2v6A8b7P8TfMOV1MHthp-53" value="CONFIRMAR CADASTRO NO BOTÃO CONFIRMAR" style="rounded=0;whiteSpace=wrap;html=1;fillColor=#ffe6cc;strokeColor=#d79b00;" vertex="1" parent="1">
          <mxGeometry x="321.25" y="420" width="120" height="60" as="geometry" />
        </mxCell>
        <mxCell id="2v6A8b7P8TfMOV1MHthp-83" style="edgeStyle=orthogonalEdgeStyle;rounded=0;orthogonalLoop=1;jettySize=auto;html=1;entryX=0.5;entryY=0;entryDx=0;entryDy=0;fillColor=#d5e8d4;strokeColor=#82b366;" edge="1" parent="1" source="2v6A8b7P8TfMOV1MHthp-54" target="2v6A8b7P8TfMOV1MHthp-52">
          <mxGeometry relative="1" as="geometry" />
        </mxCell>
        <mxCell id="2v6A8b7P8TfMOV1MHthp-54" value="SALVAR EMAIL NO BANCO DE DADOS" style="rounded=0;whiteSpace=wrap;html=1;fillColor=#ffe6cc;strokeColor=#d79b00;" vertex="1" parent="1">
          <mxGeometry x="320" y="640" width="120" height="60" as="geometry" />
        </mxCell>
        <mxCell id="2v6A8b7P8TfMOV1MHthp-79" style="edgeStyle=orthogonalEdgeStyle;rounded=0;orthogonalLoop=1;jettySize=auto;html=1;entryX=1;entryY=0.5;entryDx=0;entryDy=0;fillColor=#d5e8d4;strokeColor=#82b366;" edge="1" parent="1" source="2v6A8b7P8TfMOV1MHthp-56" target="2v6A8b7P8TfMOV1MHthp-59">
          <mxGeometry relative="1" as="geometry" />
        </mxCell>
        <mxCell id="2v6A8b7P8TfMOV1MHthp-81" style="edgeStyle=orthogonalEdgeStyle;rounded=0;orthogonalLoop=1;jettySize=auto;html=1;entryX=0;entryY=0.5;entryDx=0;entryDy=0;fillColor=#f8cecc;strokeColor=#b85450;" edge="1" parent="1" source="2v6A8b7P8TfMOV1MHthp-56" target="2v6A8b7P8TfMOV1MHthp-58">
          <mxGeometry relative="1" as="geometry" />
        </mxCell>
        <mxCell id="2v6A8b7P8TfMOV1MHthp-56" value="FAZER A VERIFICACAO SE O EMAIL E VALIDO" style="strokeWidth=2;html=1;shape=mxgraph.flowchart.decision;whiteSpace=wrap;fillColor=#dae8fc;strokeColor=#6c8ebf;" vertex="1" parent="1">
          <mxGeometry x="321.25" y="500" width="120" height="120" as="geometry" />
        </mxCell>
        <mxCell id="2v6A8b7P8TfMOV1MHthp-98" style="edgeStyle=orthogonalEdgeStyle;rounded=0;orthogonalLoop=1;jettySize=auto;html=1;entryX=1;entryY=0.75;entryDx=0;entryDy=0;fillColor=#f8cecc;strokeColor=#b85450;" edge="1" parent="1" source="2v6A8b7P8TfMOV1MHthp-58" target="2v6A8b7P8TfMOV1MHthp-45">
          <mxGeometry relative="1" as="geometry">
            <Array as="points">
              <mxPoint x="520" y="305" />
            </Array>
          </mxGeometry>
        </mxCell>
        <mxCell id="2v6A8b7P8TfMOV1MHthp-58" value="INVALIDO" style="rounded=0;whiteSpace=wrap;html=1;fillColor=#f8cecc;strokeColor=#b85450;" vertex="1" parent="1">
          <mxGeometry x="460" y="530" width="120" height="60" as="geometry" />
        </mxCell>
        <mxCell id="2v6A8b7P8TfMOV1MHthp-82" style="edgeStyle=orthogonalEdgeStyle;rounded=0;orthogonalLoop=1;jettySize=auto;html=1;entryX=0;entryY=0.5;entryDx=0;entryDy=0;fillColor=#d5e8d4;strokeColor=#82b366;" edge="1" parent="1" source="2v6A8b7P8TfMOV1MHthp-59" target="2v6A8b7P8TfMOV1MHthp-54">
          <mxGeometry relative="1" as="geometry">
            <Array as="points">
              <mxPoint x="240" y="670" />
            </Array>
          </mxGeometry>
        </mxCell>
        <mxCell id="2v6A8b7P8TfMOV1MHthp-59" value="VALIDO" style="rounded=0;whiteSpace=wrap;html=1;fillColor=#d5e8d4;strokeColor=#82b366;" vertex="1" parent="1">
          <mxGeometry x="180" y="530" width="120" height="60" as="geometry" />
        </mxCell>
        <mxCell id="2v6A8b7P8TfMOV1MHthp-88" style="rounded=0;orthogonalLoop=1;jettySize=auto;html=1;exitX=1;exitY=0.3333333333333333;exitDx=0;exitDy=0;exitPerimeter=0;entryX=0;entryY=0.5;entryDx=0;entryDy=0;fillColor=#dae8fc;strokeColor=#6c8ebf;" edge="1" parent="1" source="2v6A8b7P8TfMOV1MHthp-73" target="2v6A8b7P8TfMOV1MHthp-49">
          <mxGeometry relative="1" as="geometry" />
        </mxCell>
        <mxCell id="2v6A8b7P8TfMOV1MHthp-89" style="rounded=0;orthogonalLoop=1;jettySize=auto;html=1;exitX=1;exitY=0.3333333333333333;exitDx=0;exitDy=0;exitPerimeter=0;fillColor=#dae8fc;strokeColor=#6c8ebf;" edge="1" parent="1" source="2v6A8b7P8TfMOV1MHthp-73" target="2v6A8b7P8TfMOV1MHthp-53">
          <mxGeometry relative="1" as="geometry" />
        </mxCell>
        <mxCell id="2v6A8b7P8TfMOV1MHthp-73" value="USUARIO" style="shape=umlActor;verticalLabelPosition=bottom;verticalAlign=top;html=1;outlineConnect=0;" vertex="1" parent="1">
          <mxGeometry x="40" y="330" width="80" height="200" as="geometry" />
        </mxCell>
        <mxCell id="2v6A8b7P8TfMOV1MHthp-78" style="edgeStyle=orthogonalEdgeStyle;rounded=0;orthogonalLoop=1;jettySize=auto;html=1;entryX=0.5;entryY=0;entryDx=0;entryDy=0;entryPerimeter=0;fillColor=#d5e8d4;strokeColor=#82b366;" edge="1" parent="1" source="2v6A8b7P8TfMOV1MHthp-53" target="2v6A8b7P8TfMOV1MHthp-56">
          <mxGeometry relative="1" as="geometry" />
        </mxCell>
        <mxCell id="2v6A8b7P8TfMOV1MHthp-97" style="rounded=0;orthogonalLoop=1;jettySize=auto;html=1;exitX=1;exitY=0.3333333333333333;exitDx=0;exitDy=0;exitPerimeter=0;entryX=0;entryY=0.5;entryDx=0;entryDy=0;entryPerimeter=0;fillColor=#dae8fc;strokeColor=#6c8ebf;" edge="1" parent="1" source="2v6A8b7P8TfMOV1MHthp-73" target="2v6A8b7P8TfMOV1MHthp-46">
          <mxGeometry relative="1" as="geometry" />
        </mxCell>
        <mxCell id="2v6A8b7P8TfMOV1MHthp-101" style="edgeStyle=orthogonalEdgeStyle;rounded=0;orthogonalLoop=1;jettySize=auto;html=1;exitX=0;exitY=0.3333333333333333;exitDx=0;exitDy=0;exitPerimeter=0;entryX=0.5;entryY=0;entryDx=0;entryDy=0;entryPerimeter=0;fillColor=#e1d5e7;strokeColor=#9673a6;" edge="1" parent="1" source="2v6A8b7P8TfMOV1MHthp-2" target="2v6A8b7P8TfMOV1MHthp-56">
          <mxGeometry relative="1" as="geometry">
            <Array as="points">
              <mxPoint x="670" y="387" />
              <mxPoint x="670" y="500" />
            </Array>
          </mxGeometry>
        </mxCell>
      </root>
    </mxGraphModel>
  </diagram>
</mxfile>
